<?xml version="1.0" encoding="UTF-8"?>
<svg xmlns="http://www.w3.org/2000/svg" 
     viewBox="-126.252 -140.359 253.167 283.072"
     width="253.2mm" height="283.1mm">
  
  <title>Sheet Metal Blank - Cutting Profile</title>
  
  <rect x="-126.252" y="-140.359" 
        width="253.167" height="283.072"
        fill="white" stroke="none"/>
  
  <path d="M 71.671,-67.714 L 72.069,-66.522 L 72.426,-65.317 L 72.746,-64.100 L 73.038,-62.873 L 73.307,-61.639 L 73.558,-60.399 L 73.800,-59.156 L 74.037,-57.910 L 74.276,-56.664 L 74.523,-55.421 L 74.785,-54.181 L 75.067,-52.948 L 75.376,-51.722 L 75.712,-50.503 L 76.068,-49.291 L 76.438,-48.083 L 76.816,-46.877 L 77.196,-45.671 L 77.571,-44.465 L 77.936,-43.255 L 78.283,-42.040 L 78.607,-40.818 L 78.902,-39.588 L 79.165,-38.349 L 79.405,-37.103 L 79.632,-35.853 L 79.856,-34.603 L 80.087,-33.356 L 80.335,-32.115 L 80.609,-30.882 L 80.920,-29.661 L 81.278,-28.455 L 81.691,-27.266 L 82.159,-26.095 L 82.664,-24.936 L 83.192,-23.783 L 83.727,-22.633 L 84.253,-21.480 L 84.755,-20.319 L 85.216,-19.145 L 85.622,-17.953 L 85.966,-16.742 L 86.261,-15.514 L 86.518,-14.275 L 86.750,-13.028 L 86.968,-11.776 L 87.186,-10.524 L 87.415,-9.275 L 87.667,-8.034 L 87.951,-6.803 L 88.266,-5.581 L 88.606,-4.367 L 88.968,-3.159 L 89.347,-1.957 L 89.738,-0.757 L 90.137,0.440 L 90.540,1.637 L 90.942,2.836 L 91.340,4.036 L 91.731,5.240 L 92.117,6.447 L 92.498,7.655 L 92.875,8.865 L 93.249,10.077 L 93.621,11.289 L 93.992,12.501 L 94.362,13.714 L 94.733,14.926 L 95.104,16.138 L 95.478,17.348 L 95.854,18.556 L 96.234,19.762 L 96.618,20.966 L 97.008,22.167 L 97.403,23.364 L 97.805,24.557 L 98.215,25.746 L 98.634,26.931 L 99.061,28.110 L 99.499,29.285 L 99.945,30.455 L 100.400,31.623 L 100.864,32.788 L 101.336,33.953 L 101.816,35.117 L 102.303,36.281 L 102.798,37.447 L 103.299,38.615 L 103.808,39.786 L 104.322,40.962 L 104.843,42.142 L 105.367,43.327 L 105.890,44.510 L 106.405,45.686 L 106.906,46.849 L 107.387,47.994 L 107.842,49.113 L 108.266,50.204 L 108.676,51.278 L 109.101,52.357 L 109.570,53.465 L 110.114,54.623 L 110.762,55.855 L 111.542,57.183 L 112.460,58.611 L 113.452,60.093 L 114.443,61.577 L 115.359,63.010 L 116.126,64.338 L 116.669,65.508 L 116.915,66.468 L 116.789,67.164 L 116.216,67.543 L 115.169,67.587 L 113.816,67.427 L 112.383,67.239 L 111.094,67.197 L 110.166,67.467 L 109.665,68.097 L 109.530,69.033 L 109.693,70.217 L 110.090,71.589 L 110.654,73.092 L 111.318,74.668 L 112.018,76.258 L 112.686,77.805 L 113.262,79.254 L 113.727,80.604 L 114.083,81.877 L 114.333,83.094 L 114.480,84.278 L 114.526,85.451 L 114.475,86.635 L 114.329,87.853 L 114.087,89.111 L 113.736,90.369 L 113.260,91.582 L 112.644,92.701 L 111.872,93.680 L 110.939,94.485 L 109.872,95.140 L 108.709,95.680 L 107.487,96.141 L 106.243,96.559 L 105.005,96.961 L 103.774,97.347 L 102.550,97.715 L 101.328,98.058 L 100.107,98.375 L 98.885,98.659 L 97.658,98.908 L 96.425,99.118 L 95.182,99.284 L 93.928,99.401 L 92.661,99.465 L 91.391,99.442 L 90.132,99.290 L 88.898,98.965 L 87.709,98.447 L 86.589,97.762 L 85.564,96.939 L 84.659,96.010 L 83.900,95.004 L 83.311,93.948 L 82.882,92.838 L 82.579,91.644 L 82.370,90.334 L 82.218,88.880 L 82.096,87.280 L 81.981,85.593 L 81.852,83.883 L 81.690,82.211 L 81.472,80.642 L 81.179,79.238 L 80.790,78.064 L 80.284,77.182 L 79.641,76.655 L 78.839,76.548 L 77.867,76.902 L 76.768,77.619 L 75.609,78.541 L 74.459,79.509 L 73.386,80.363 L 72.456,80.945 L 71.737,81.100 L 71.247,80.780 L 70.955,80.049 L 70.828,78.975 L 70.834,77.627 L 70.939,76.076 L 71.111,74.389 L 71.315,72.638 L 71.519,70.889 L 71.690,69.213 L 71.798,67.674 L 71.839,66.274 L 71.827,64.983 L 71.775,63.770 L 71.697,62.604 L 71.607,61.452 L 71.517,60.283 L 71.437,59.078 L 71.370,57.839 L 71.316,56.574 L 71.275,55.291 L 71.248,53.998 L 71.235,52.702 L 71.237,51.411 L 71.247,50.127 L 71.254,48.851 L 71.247,47.582 L 71.216,46.320 L 71.148,45.066 L 71.034,43.818 L 70.861,42.577 L 70.621,41.343 L 70.326,40.115 L 70.011,38.888 L 69.708,37.662 L 69.417,36.436 L 69.130,35.211 L 68.837,33.989 L 68.531,32.770 L 68.201,31.555 L 67.841,30.347 L 67.441,29.145 L 66.992,27.951 L 66.486,26.766 L 65.914,25.591 L 65.271,24.435 L 64.556,23.316 L 63.768,22.255 L 62.909,21.271 L 61.977,20.385 L 60.971,19.615 L 59.893,18.983 L 58.741,18.507 L 57.522,18.197 L 56.255,18.046 L 54.962,18.040 L 53.664,18.170 L 52.382,18.424 L 51.137,18.791 L 49.947,19.258 L 48.810,19.814 L 47.717,20.445 L 46.662,21.138 L 45.636,21.881 L 44.632,22.660 L 43.641,23.463 L 42.657,24.277 L 41.670,25.087 L 40.674,25.883 L 39.662,26.650 L 38.626,27.377 L 37.560,28.053 L 36.459,28.664 L 35.323,29.212 L 34.162,29.717 L 32.990,30.200 L 31.819,30.683 L 30.661,31.190 L 29.529,31.743 L 28.428,32.350 L 27.352,33.002 L 26.295,33.689 L 25.249,34.399 L 24.208,35.119 L 23.164,35.840 L 22.111,36.549 L 21.042,37.234 L 19.949,37.886 L 18.829,38.493 L 17.684,39.054 L 16.516,39.566 L 15.328,40.026 L 14.122,40.430 L 12.903,40.777 L 11.671,41.064 L 10.431,41.288 L 9.184,41.450 L 7.931,41.556 L 6.673,41.614 L 5.410,41.634 L 4.145,41.621 L 2.876,41.586 L 1.607,41.535 L 0.336,41.476 L -0.935,41.419 L -2.205,41.370 L -3.474,41.337 L -4.740,41.329 L -6.003,41.354 L -7.262,41.418 L -8.517,41.521 L -9.769,41.664 L -11.017,41.847 L -12.262,42.070 L -13.503,42.334 L -14.740,42.638 L -15.975,42.983 L -17.206,43.369 L -18.434,43.788 L -19.660,44.215 L -20.884,44.624 L -22.108,44.991 L -23.331,45.288 L -24.554,45.491 L -25.779,45.574 L -27.005,45.516 L -28.232,45.334 L -29.462,45.059 L -30.693,44.721 L -31.926,44.352 L -33.160,43.981 L -34.396,43.641 L -35.633,43.361 L -36.872,43.167 L -38.114,43.059 L -39.359,43.032 L -40.609,43.081 L -41.864,43.201 L -43.126,43.386 L -44.395,43.632 L -45.673,43.932 L -46.961,44.282 L -48.257,44.678 L -49.543,45.126 L -50.794,45.635 L -51.984,46.217 L -53.088,46.880 L -54.081,47.636 L -54.937,48.494 L -55.632,49.463 L -56.150,50.548 L -56.504,51.730 L -56.715,52.985 L -56.803,54.292 L -56.788,55.626 L -56.690,56.966 L -56.530,58.288 L -56.320,59.581 L -56.069,60.848 L -55.781,62.092 L -55.463,63.317 L -55.121,64.526 L -54.761,65.725 L -54.388,66.915 L -54.010,68.101 L -53.631,69.287 L -53.257,70.476 L -52.903,71.675 L -52.614,72.907 L -52.446,74.197 L -52.410,75.549 L -52.454,76.934 L -52.526,78.320 L -52.571,79.677 L -52.536,80.973 L -52.366,82.179 L -52.008,83.262 L -51.409,84.192 L -50.544,84.958 L -49.482,85.606 L -48.302,86.192 L -47.088,86.773 L -45.921,87.404 L -44.883,88.142 L -44.051,89.039 L -43.427,90.094 L -42.955,91.265 L -42.576,92.507 L -42.232,93.776 L -41.864,95.027 L -41.413,96.217 L -40.837,97.312 L -40.143,98.323 L -39.352,99.266 L -38.482,100.160 L -37.553,101.022 L -36.583,101.870 L -35.592,102.720 L -34.600,103.592 L -33.624,104.502 L -32.691,105.465 L -31.859,106.471 L -31.196,107.505 L -30.770,108.550 L -30.601,109.605 L -30.661,110.679 L -30.923,111.784 L -31.361,112.929 L -31.945,114.125 L -32.649,115.382 L -33.444,116.713 L -34.304,118.126 L -35.198,119.627 L -36.077,121.175 L -36.879,122.698 L -37.543,124.128 L -38.008,125.394 L -38.212,126.427 L -38.095,127.157 L -37.596,127.514 L -36.699,127.477 L -35.488,127.129 L -34.061,126.567 L -32.514,125.889 L -30.943,125.191 L -29.447,124.569 L -28.121,124.120 L -27.062,123.943 L -26.367,124.132 L -26.120,124.766 L -26.305,125.772 L -26.861,127.007 L -27.726,128.330 L -28.837,129.597 L -30.134,130.673 L -31.573,131.514 L -33.120,132.129 L -34.741,132.525 L -36.401,132.713 L -38.066,132.702 L -39.702,132.501 L -41.275,132.119 L -42.751,131.565 L -44.095,130.850 L -45.274,129.981 L -46.254,128.968 L -46.999,127.821 L -47.476,126.549 L -47.652,125.161 L -47.493,123.667 L -47.024,122.101 L -46.324,120.521 L -45.475,118.988 L -44.560,117.559 L -43.662,116.295 L -42.861,115.255 L -42.242,114.499 L -41.885,114.085 L -41.874,114.073 L -42.244,114.492 L -42.898,115.288 L -43.715,116.388 L -44.572,117.722 L -45.350,119.220 L -45.929,120.809 L -46.276,122.427 L -46.452,124.017 L -46.527,125.522 L -46.567,126.885 L -46.640,128.051 L -46.814,128.963 L -47.156,129.565 L -47.726,129.810 L -48.514,129.717 L -49.480,129.338 L -50.584,128.728 L -51.786,127.936 L -53.044,127.017 L -54.318,126.023 L -55.568,125.005 L -56.752,124.016 L -57.834,123.104 L -58.804,122.253 L -59.674,121.406 L -60.455,120.507 L -61.160,119.526 L -61.812,118.477 L -62.431,117.381 L -63.037,116.258 L -63.651,115.126 L -64.294,114.005 L -64.988,112.916 L -65.752,111.877 L -66.608,110.908 L -67.559,110.014 L -68.590,109.187 L -69.686,108.414 L -70.832,107.686 L -72.011,106.992 L -73.209,106.323 L -74.409,105.666 L -75.596,105.012 L -76.754,104.351 L -77.868,103.671 L -78.922,102.963 L -79.901,102.215 L -80.789,101.418 L -81.570,100.560 L -82.229,99.632 L -82.751,98.623 L -83.122,97.524 L -83.361,96.344 L -83.503,95.102 L -83.580,93.815 L -83.628,92.501 L -83.679,91.178 L -83.769,89.865 L -83.916,88.572 L -84.107,87.298 L -84.326,86.040 L -84.558,84.793 L -84.785,83.553 L -84.991,82.318 L -85.159,81.083 L -85.275,79.845 L -85.320,78.599 L -85.283,77.344 L -85.202,76.081 L -85.135,74.816 L -85.134,73.555 L -85.202,72.298 L -85.331,71.045 L -85.509,69.795 L -85.728,68.547 L -85.977,67.302 L -86.247,66.058 L -86.529,64.814 L -86.811,63.571 L -87.086,62.328 L -87.345,61.084 L -87.588,59.839 L -87.814,58.593 L -88.023,57.345 L -88.214,56.096 L -88.387,54.845 L -88.541,53.593 L -88.675,52.338 L -88.790,51.081 L -88.884,49.821 L -88.961,48.560 L -89.024,47.296 L -89.079,46.032 L -89.132,44.768 L -89.186,43.504 L -89.248,42.241 L -89.321,40.980 L -89.412,39.720 L -89.524,38.464 L -89.662,37.211 L -89.822,35.961 L -90.003,34.712 L -90.201,33.463 L -90.413,32.213 L -90.637,30.962 L -90.872,29.709 L -91.122,28.457 L -91.394,27.210 L -91.695,25.972 L -92.032,24.746 L -92.409,23.537 L -92.835,22.347 L -93.315,21.181 L -93.856,20.042 L -94.464,18.934 L -95.128,17.852 L -95.829,16.790 L -96.547,15.737 L -97.263,14.687 L -97.955,13.631 L -98.604,12.559 L -99.191,11.465 L -99.705,10.343 L -100.160,9.196 L -100.567,8.026 L -100.942,6.836 L -101.297,5.630 L -101.647,4.410 L -102.005,3.178 L -102.386,1.939 L -102.802,0.695 L -103.267,-0.552 L -103.770,-1.799 L -104.285,-3.045 L -104.782,-4.288 L -105.233,-5.528 L -105.610,-6.762 L -105.885,-7.991 L -106.029,-9.211 L -106.014,-10.423 L -105.812,-11.624 L -105.416,-12.815 L -104.948,-14.002 L -104.573,-15.194 L -104.400,-16.396 L -104.417,-17.607 L -104.593,-18.827 L -104.900,-20.054 L -105.309,-21.285 L -105.792,-22.519 L -106.318,-23.756 L -106.859,-24.993 L -107.386,-26.228 L -107.871,-27.461 L -108.303,-28.690 L -108.690,-29.917 L -109.038,-31.140 L -109.353,-32.362 L -109.643,-33.582 L -109.914,-34.801 L -110.173,-36.019 L -110.427,-37.237 L -110.684,-38.454 L -110.949,-39.672 L -111.231,-40.890 L -111.539,-42.107 L -111.880,-43.325 L -112.263,-44.541 L -112.695,-45.756 L -113.183,-46.970 L -113.715,-48.183 L -114.261,-49.394 L -114.794,-50.605 L -115.284,-51.815 L -115.704,-53.025 L -116.024,-54.236 L -116.216,-55.446 L -116.252,-56.658 L -116.103,-57.870 L -115.782,-59.080 L -115.345,-60.284 L -114.852,-61.474 L -114.363,-62.646 L -113.931,-63.795 L -113.561,-64.925 L -113.225,-66.048 L -112.895,-67.174 L -112.543,-68.316 L -112.141,-69.484 L -111.661,-70.689 L -111.076,-71.942 L -110.357,-73.255 L -109.496,-74.630 L -108.588,-76.024 L -107.765,-77.377 L -107.162,-78.628 L -106.909,-79.717 L -107.140,-80.585 L -107.975,-81.175 L -109.319,-81.514 L -110.893,-81.698 L -112.412,-81.823 L -113.589,-81.988 L -114.138,-82.289 L -113.902,-82.785 L -113.032,-83.429 L -111.729,-84.160 L -110.191,-84.918 L -108.618,-85.643 L -107.185,-86.278 L -105.909,-86.810 L -104.748,-87.239 L -103.658,-87.566 L -102.596,-87.789 L -101.519,-87.911 L -100.385,-87.930 L -99.150,-87.847 L -97.772,-87.663 L -96.206,-87.378 L -94.422,-86.995 L -92.559,-86.578 L -90.899,-86.240 L -89.730,-86.095 L -89.339,-86.256 L -89.955,-86.802 L -91.197,-87.417 L -92.327,-87.566 L -92.987,-87.031 L -93.240,-85.952 L -93.168,-84.486 L -92.853,-82.790 L -92.380,-81.023 L -91.831,-79.341 L -91.257,-77.838 L -90.662,-76.502 L -90.042,-75.308 L -89.394,-74.235 L -88.715,-73.259 L -88.002,-72.358 L -87.252,-71.508 L -86.461,-70.687 L -85.627,-69.871 L -84.746,-69.038 L -83.836,-68.171 L -82.933,-67.265 L -82.078,-66.311 L -81.310,-65.303 L -80.664,-64.236 L -80.140,-63.113 L -79.718,-61.943 L -79.378,-60.733 L -79.100,-59.494 L -78.864,-58.232 L -78.650,-56.958 L -78.438,-55.679 L -78.208,-54.405 L -77.940,-53.143 L -77.619,-51.901 L -77.260,-50.675 L -76.885,-49.460 L -76.518,-48.250 L -76.182,-47.039 L -75.901,-45.821 L -75.696,-44.591 L -75.575,-43.345 L -75.522,-42.087 L -75.518,-40.821 L -75.546,-39.548 L -75.589,-38.273 L -75.630,-36.998 L -75.651,-35.725 L -75.652,-34.457 L -75.633,-33.191 L -75.598,-31.928 L -75.547,-30.667 L -75.483,-29.408 L -75.409,-28.150 L -75.326,-26.893 L -75.237,-25.636 L -75.139,-24.379 L -75.031,-23.123 L -74.910,-21.869 L -74.773,-20.615 L -74.618,-19.364 L -74.441,-18.115 L -74.241,-16.869 L -74.013,-15.625 L -73.757,-14.385 L -73.468,-13.149 L -73.145,-11.917 L -72.784,-10.689 L -72.383,-9.467 L -71.932,-8.260 L -71.417,-7.088 L -70.822,-5.970 L -70.135,-4.923 L -69.339,-3.967 L -68.420,-3.120 L -67.364,-2.401 L -66.184,-1.826 L -64.919,-1.406 L -63.611,-1.152 L -62.301,-1.077 L -61.031,-1.192 L -59.838,-1.506 L -58.730,-2.007 L -57.698,-2.668 L -56.730,-3.465 L -55.818,-4.372 L -54.950,-5.362 L -54.118,-6.411 L -53.312,-7.494 L -52.520,-8.584 L -51.734,-9.656 L -50.944,-10.690 L -50.146,-11.686 L -49.334,-12.649 L -48.504,-13.585 L -47.653,-14.499 L -46.775,-15.397 L -45.866,-16.282 L -44.925,-17.149 L -43.951,-17.986 L -42.943,-18.781 L -41.900,-19.522 L -40.822,-20.197 L -39.707,-20.795 L -38.555,-21.303 L -37.366,-21.711 L -36.143,-22.013 L -34.893,-22.210 L -33.622,-22.299 L -32.337,-22.280 L -31.045,-22.153 L -29.751,-21.917 L -28.463,-21.581 L -27.191,-21.217 L -25.945,-20.917 L -24.737,-20.778 L -23.576,-20.890 L -22.463,-21.281 L -21.385,-21.883 L -20.325,-22.626 L -19.271,-23.437 L -18.206,-24.245 L -17.116,-24.978 L -15.986,-25.565 L -14.808,-25.959 L -13.587,-26.186 L -12.333,-26.279 L -11.053,-26.274 L -9.757,-26.205 L -8.452,-26.108 L -7.149,-26.017 L -5.854,-25.966 L -4.577,-25.991 L -3.327,-26.126 L -2.112,-26.406 L -0.934,-26.840 L 0.214,-27.399 L 1.338,-28.049 L 2.446,-28.759 L 3.545,-29.496 L 4.644,-30.228 L 5.748,-30.923 L 6.866,-31.548 L 8.006,-32.071 L 9.173,-32.459 L 10.377,-32.680 L 11.623,-32.703 L 12.909,-32.544 L 14.219,-32.260 L 15.540,-31.912 L 16.856,-31.561 L 18.153,-31.267 L 19.417,-31.091 L 20.632,-31.093 L 21.785,-31.334 L 22.861,-31.872 L 23.871,-32.661 L 24.859,-33.523 L 25.870,-34.270 L 26.948,-34.725 L 28.106,-34.842 L 29.327,-34.696 L 30.594,-34.367 L 31.892,-33.934 L 33.204,-33.477 L 34.512,-33.076 L 35.800,-32.809 L 37.052,-32.756 L 38.250,-32.994 L 39.394,-33.512 L 40.495,-34.204 L 41.557,-34.983 L 42.555,-35.834 L 43.457,-36.760 L 44.228,-37.761 L 44.838,-38.839 L 45.261,-39.994 L 45.510,-41.213 L 45.614,-42.478 L 45.599,-43.771 L 45.495,-45.077 L 45.329,-46.376 L 45.121,-47.657 L 44.880,-48.921 L 44.607,-50.168 L 44.307,-51.401 L 43.983,-52.623 L 43.639,-53.835 L 43.279,-55.038 L 42.906,-56.236 L 42.524,-57.430 L 42.137,-58.621 L 41.748,-59.813 L 41.361,-61.007 L 40.980,-62.205 L 40.608,-63.409 L 40.244,-64.617 L 39.887,-65.830 L 39.537,-67.047 L 39.193,-68.267 L 38.854,-69.489 L 38.520,-70.713 L 38.188,-71.938 L 37.859,-73.163 L 37.532,-74.387 L 37.206,-75.610 L 36.880,-76.832 L 36.553,-78.050 L 36.225,-79.265 L 35.894,-80.476 L 35.559,-81.684 L 35.216,-82.889 L 34.861,-84.095 L 34.491,-85.303 L 34.102,-86.515 L 33.690,-87.734 L 33.253,-88.960 L 32.802,-90.193 L 32.350,-91.430 L 31.913,-92.668 L 31.505,-93.905 L 31.140,-95.138 L 30.834,-96.364 L 30.602,-97.581 L 30.457,-98.786 L 30.414,-99.977 L 30.485,-101.153 L 30.644,-102.341 L 30.849,-103.576 L 31.059,-104.897 L 31.234,-106.338 L 31.369,-107.887 L 31.491,-109.491 L 31.629,-111.095 L 31.812,-112.643 L 32.068,-114.081 L 32.426,-115.353 L 32.914,-116.405 L 33.562,-117.181 L 34.397,-117.625 L 35.446,-117.686 L 36.671,-117.366 L 37.961,-116.730 L 39.202,-115.847 L 40.281,-114.784 L 41.083,-113.611 L 41.494,-112.396 L 41.403,-111.208 L 40.803,-110.108 L 39.822,-109.153 L 38.598,-108.396 L 37.269,-107.892 L 35.971,-107.697 L 34.818,-107.847 L 33.825,-108.318 L 32.990,-109.073 L 32.308,-110.074 L 31.775,-111.281 L 31.386,-112.657 L 31.139,-114.164 L 31.028,-115.764 L 31.050,-117.418 L 31.201,-119.088 L 31.476,-120.737 L 31.872,-122.325 L 32.384,-123.815 L 33.008,-125.169 L 33.741,-126.357 L 34.577,-127.379 L 35.509,-128.242 L 36.534,-128.953 L 37.645,-129.518 L 38.836,-129.944 L 40.090,-130.228 L 41.377,-130.359 L 42.668,-130.325 L 43.933,-130.114 L 45.143,-129.717 L 46.281,-129.143 L 47.340,-128.423 L 48.312,-127.588 L 49.191,-126.668 L 49.980,-125.688 L 50.697,-124.662 L 51.366,-123.601 L 52.006,-122.518 L 52.639,-121.425 L 53.288,-120.335 L 53.972,-119.260 L 54.715,-118.213 L 55.535,-117.205 L 56.425,-116.234 L 57.349,-115.285 L 58.273,-114.344 L 59.158,-113.393 L 59.970,-112.418 L 60.671,-111.403 L 61.226,-110.332 L 61.599,-109.191 L 61.791,-107.979 L 61.859,-106.715 L 61.860,-105.422 L 61.854,-104.123 L 61.887,-102.833 L 61.966,-101.556 L 62.085,-100.291 L 62.242,-99.035 L 62.430,-97.788 L 62.647,-96.548 L 62.887,-95.314 L 63.147,-94.084 L 63.423,-92.857 L 63.709,-91.632 L 64.003,-90.407 L 64.299,-89.181 L 64.593,-87.953 L 64.881,-86.722 L 65.162,-85.486 L 65.444,-84.249 L 65.735,-83.015 L 66.044,-81.786 L 66.381,-80.566 L 66.754,-79.358 L 67.173,-78.166 L 67.634,-76.989 L 68.129,-75.824 L 68.647,-74.668 L 69.178,-73.516 L 69.712,-72.366 L 70.238,-71.214 L 70.747,-70.058 L 71.228,-68.892 L 71.671,-67.714 Z"
        fill="lightblue" 
        stroke="red" 
        stroke-width="0.5"
        opacity="0.8"/>
  
</svg>